<svg width="300" height="300" viewBox="0 0 12 12" xmlns="http://www.w3.org/2000/svg"><title>file_type_aws</title><path d="M11.25 7.182v.477c0 .865-.954 1.76-2.118 1.76H2.868C1.69 9.419.75 8.539.75 7.659v-.477Z" style="fill:#9d5125"/><path d="M4.792 2.543a2.67 2.67 0 0 1 2.446 1.582 1.37 1.37 0 0 1 .776-.238A1.344 1.344 0 0 1 9.371 5.2a2.134 2.134 0 0 1 1.879 1.922v.179c0 .88-.954 1.76-2.133 1.76H2.868C1.69 9.061.75 8.181.75 7.301v-.179a2.07 2.07 0 0 1 1.357-1.82v-.075a2.674 2.674 0 0 1 2.685-2.684" style="fill:#f58535"/><path d="m3.375 5.661-.701 2.446h.417l.164-.597h.716l.15.597h.416l-.656-2.446Zm-.06 1.537.3-1.208.283 1.208Zm2.983.387h-.014l-.329-1.924h-.417L5.224 7.57H5.21l-.329-1.909h-.387l.477 2.46h.447l.314-1.849h.015l.313 1.849h.462l.492-2.46h-.402zm1.984-.806-.268-.09c-.268-.104-.373-.225-.373-.432a.338.338 0 1 1 .671 0v.045H8.7v-.06c0-.254-.06-.641-.701-.641a.675.675 0 0 0-.762.701.65.65 0 0 0 .522.671l.268.09a.413.413 0 0 1 .358.432.35.35 0 0 1-.373.358q-.403 0-.403-.447v-.06h-.388v.06a.67.67 0 0 0 .746.746c.492 0 .82-.209.82-.731a.65.65 0 0 0-.507-.642" style="fill:#fff"/></svg>