<svg width="300px" height="300px" viewBox="0 0 12 12" fill="none" xmlns="http://www.w3.org/2000/svg"><path cx="16" cy="16" r="14" fill="#1794D4" d="M11.25 6A5.25 5.25 0 0 1 6 11.25A5.25 5.25 0 0 1 0.75 6A5.25 5.25 0 0 1 11.25 6z"/><path d="M6.75 2.625h-0.75v0.75h0.75z" fill="white"/><path d="M3.75 3.75h0.75v0.75h-0.75z" fill="white"/><path d="M2.251 6.353C2.314 7.441 2.963 9 5.25 9c2.55 0 3.687 -1.875 3.938 -2.813 0.312 0 1.013 -0.188 1.313 -0.938 -0.188 -0.188 -0.938 -0.188 -1.313 0 0 -0.3 -0.188 -0.938 -0.563 -1.125 -0.25 0.25 -0.637 0.9 -0.188 1.5 -0.188 0.375 -0.687 0.375 -0.938 0.375H2.604c-0.199 0 -0.365 0.155 -0.353 0.353" fill="white"/><path d="M3.375 4.875H2.625v0.75h0.75z" fill="white"/><path d="M3.75 4.875h0.75v0.75h-0.75z" fill="white"/><path d="M5.625 4.875h-0.75v0.75h0.75z" fill="white"/><path d="M6 4.875h0.75v0.75h-0.75z" fill="white"/><path d="M7.875 4.875h-0.75v0.75h0.75z" fill="white"/><path d="M5.625 3.75h-0.75v0.75h0.75z" fill="white"/><path d="M6 3.75h0.75v0.75h-0.75z" fill="white"/></svg>