<svg width="300px" height="300px" viewBox="0 0 300 300" role="img" xmlns="http://www.w3.org/2000/svg"><path d="M300 232.35a19.125 19.125 0 0 1 -23.688 -9l-43.125 -59.637 -6.25 -8.338 -50.038 68.05a18.325 18.325 0 0 1 -22.525 8.85l64.475 -86.5 -59.975 -78.138a19.938 19.938 0 0 1 23.75 8.325l44.7 60.375 44.95 -60.125a17.938 17.938 0 0 1 22.35 -8.35L271.35 98.75l-31.525 41.038a8.325 8.325 0 0 0 0 12.425l60.05 80.15zM0.025 144.7l5.25 -25.938c14.425 -51.287 73.225 -72.625 113.675 -40.875 23.688 18.613 29.6 44.962 28.438 74.662H13.95C11.787 205.587 50.063 237.613 99 221.25a51 51 0 0 0 32.275 -35.95c2.587 -8.325 6.85 -9.75 14.675 -7.35a67.75 67.75 0 0 1 -32.362 49.462 78.375 78.375 0 0 1 -91.325 -11.663 82.25 82.25 0 0 1 -20.5 -48.225c0 -2.938 -1 -5.688 -1.675 -8.325A1100 1100 0 0 1 0 144.713zm14.088 -3.575h120.675c-0.75 -38.45 -25.012 -65.725 -57.375 -65.975 -36.025 -0.5 -61.8 26.175 -63.387 65.8z"/></svg>