<svg width="300px" height="300px" viewBox="0 0 6 6" xmlns="http://www.w3.org/2000/svg" fill="none"><path fill="#1ABCFE" d="M3.206 3c0 -0.483 0.382 -0.875 0.853 -0.875S4.912 2.516 4.912 3c0 0.483 -0.382 0.875 -0.853 0.875C3.589 3.875 3.206 3.484 3.206 3"/><path fill="#0ACF83" d="M1.5 4.75c0 -0.483 0.382 -0.875 0.853 -0.875H3.206v0.875C3.206 5.233 2.824 5.625 2.353 5.625S1.5 5.233 1.5 4.75"/><path fill="#FF7262" d="M3.206 0.375v1.75h0.853c0.471 0 0.853 -0.392 0.853 -0.875C4.912 0.767 4.531 0.375 4.059 0.375z"/><path fill="#F24E1E" d="M1.5 1.25c0 0.483 0.382 0.875 0.853 0.875H3.206V0.375H2.353C1.882 0.375 1.5 0.767 1.5 1.25"/><path fill="#A259FF" d="M1.5 3c0 0.483 0.382 0.875 0.853 0.875H3.206V2.125H2.353C1.882 2.125 1.5 2.516 1.5 3"/></svg>