<svg width="300px" height="300px" viewBox="0 0 12 12" xmlns="http://www.w3.org/2000/svg"><title>file_type_git</title><path d="M11.052 5.532 6.468 0.948a0.675 0.675 0 0 0 -0.956 0l-0.952 0.952 1.208 1.208a0.803 0.803 0 0 1 1.017 1.024l1.163 1.163a0.804 0.804 0 1 1 -0.482 0.454l-1.086 -1.086v2.856a0.803 0.803 0 1 1 -0.661 -0.023V4.613a0.805 0.805 0 0 1 -0.437 -1.055l-1.189 -1.19L0.948 5.512a0.675 0.675 0 0 0 0 0.957l4.584 4.583a0.675 0.675 0 0 0 0.956 0L11.052 6.488a0.675 0.675 0 0 0 0 -0.957" style="fill:#dd4c35"/><path d="m4.559 1.9 1.208 1.208a0.803 0.803 0 0 1 1.017 1.024l1.163 1.163a0.804 0.804 0 1 1 -0.482 0.454l-1.086 -1.086v2.856a0.803 0.803 0 1 1 -0.661 -0.023V4.613a0.805 0.805 0 0 1 -0.437 -1.055l-1.189 -1.19" style="fill:#fff"/></svg>