<svg width="300px" height="300px" viewBox="0 0 18 18" fill="none" xmlns="http://www.w3.org/2000/svg"><path width="48" height="48" fill="white" fill-opacity="0.01" d="M0 0H18V18H0V0z"/><path fill-rule="evenodd" clip-rule="evenodd" d="M9 1.5C4.858 1.5 1.5 4.858 1.5 9s3.358 7.5 7.5 7.5 7.5 -3.358 7.5 -7.5S13.142 1.5 9 1.5M0 9C0 4.029 4.029 0 9 0s9 4.029 9 9 -4.029 9 -9 9S0 13.971 0 9" fill="#000000"/><path fill-rule="evenodd" clip-rule="evenodd" d="M7.194 17.052q-0.109 -0.141 0 -2.503 -1.165 0.041 -1.473 -0.162c-0.307 -0.203 -0.615 -0.825 -0.888 -1.264s-0.879 -0.509 -1.123 -0.607 -0.306 -0.498 0.674 -0.196c0.98 0.303 1.028 1.127 1.337 1.319 0.309 0.193 1.048 0.109 1.383 -0.046 0.335 -0.154 0.31 -0.729 0.37 -0.957 0.076 -0.213 -0.191 -0.26 -0.197 -0.261 -0.327 0 -2.045 -0.374 -2.517 -2.037 -0.472 -1.664 0.136 -2.751 0.461 -3.219q0.324 -0.467 -0.057 -1.992Q6.549 4.95 7.302 6c0.001 0.004 0.658 -0.391 1.698 -0.391s1.408 0.322 1.693 0.391 0.512 -1.225 2.27 -0.872c-0.367 0.721 -0.674 1.622 -0.44 1.992 0.235 0.37 1.155 1.548 0.59 3.219q-0.565 1.671 -2.223 2.037 -0.19 0.06 -0.19 0.195c0 0.135 0.171 0.15 0.418 0.783q0.247 0.632 0.036 3.613 -0.534 0.136 -0.833 0.183c-0.351 0.055 -0.733 0.086 -1.108 0.098 -0.375 0.012 -0.506 0.011 -1.024 -0.038a7.5 7.5 0 0 1 -0.995 -0.159" fill="#000000"/></svg>