<svg width="300" height="300" viewBox="0 0 300 300" xmlns="http://www.w3.org/2000/svg"><path style="fill:#13aa52" d="M300 150a150 150 0 0 1-150 150A150 150 0 0 1 0 150a150 150 0 0 1 300 0"/><path d="M190.096 131.672c-9.475-41.815-31.866-55.564-34.277-60.817-2.637-3.706-5.309-10.298-5.309-10.298-.044-.111-.114-.308-.196-.498-.272 3.706-.413 5.136-3.917 8.874-5.426 4.242-33.264 27.601-35.528 75.108-2.112 44.309 32.007 70.711 36.621 74.077l.524.372v-.032c.029.223 1.465 10.547 2.473 21.486h3.615a213 213 0 0 1 3.809-23.007l.293-.19a60 60 0 0 0 5.892-4.819l.211-.19c9.809-9.062 27.442-30.021 27.27-63.437a101.7 101.7 0 0 0-1.479-16.629m-39.995 61.43s0-62.145 2.051-62.133c1.6 0 3.671 80.159 3.671 80.159-2.848-.343-5.722-13.192-5.722-18.026" style="fill:#fff"/></svg>