<svg width="300" height="300" viewBox="0 0 300 300" xmlns="http://www.w3.org/2000/svg"><path d="M207.909 206.297c10.884-.928 19.284-10.5 18.75-21.928-.591-11.428-9.966-20.597-21.337-20.597h-.788a21.375 21.375 0 0 0-20.597 22.116c.384 6.009 2.822 10.837 6.197 14.4-13.134 25.491-32.766 44.203-62.597 59.962-20.016 10.453-41.166 14.409-61.763 11.578-17.241-2.391-30.712-10.097-38.962-22.462-12.366-18.75-13.491-38.916-3.178-59.175 7.509-14.597 18.75-25.303 26.212-30.525a127.5 127.5 0 0 1-5.222-19.284c-55.463 39.703-49.8 94.05-32.953 119.691 12.553 18.75 38.175 30.712 66.253 30.712 7.528 0 15.384-.534 23.053-2.447 48.741-9.375 85.603-38.578 106.734-81.638zm66.844-46.819c-28.997-34.087-71.728-52.837-120.403-52.837h-6.403c-3.122-6.891-10.453-11.222-18.703-11.222h-.534c-11.813 0-21 10.153-20.616 21.928.403 11.222 9.909 20.597 21.337 20.597h.938a21.19 21.19 0 0 0 18.75-13.134h6.928c28.866 0 56.166 8.447 81.112 24.909 19.041 12.534 32.766 29.053 40.425 48.722 6.741 16.059 6.347 31.837-.591 44.972-10.641 20.55-28.659 31.434-52.388 31.434-14.991 0-29.588-4.688-37.116-8.053-4.491 3.713-12.009 9.909-17.438 13.678 16.509 7.463 33.159 11.766 49.275 11.766 36.525 0 63.675-20.559 73.978-40.425 11.222-22.462 10.303-60.309-18.366-92.728zm-193.65 53.559a21.6 21.6 0 0 0 21.384 20.597h.741a21.12 21.12 0 0 0 20.597-22.116c0-11.241-9.713-20.616-21.141-20.616h-.788c-.722 0-1.847 0-2.822.403-15.525-26.222-22.078-54.347-19.641-84.675 1.472-22.847 8.991-42.675 22.462-59.175 11.241-14.016 32.372-21 46.828-21.337 40.434-.788 57.328 49.65 58.603 69.675l18.75 5.616c-4.348-61.425-42.523-93.647-79.048-93.647-34.275 0-65.925 24.9-78.666 61.425C50.971 117.928 62.399 164.7 83.737 202.2c-1.847 2.391-2.972 6.741-2.634 10.837"/></svg>