<svg width="300px" height="300px" viewBox="0 0 12 12" xmlns="http://www.w3.org/2000/svg"><title>file_type_vscode</title><path d="m10.879 1.886 -2.162 -1.041a0.652 0.652 0 0 0 -0.746 0.127L0.892 7.425a0.437 0.437 0 0 0 -0.03 0.618q0.014 0.015 0.029 0.029l0.578 0.525a0.437 0.437 0 0 0 0.558 0.025L10.553 2.156A0.434 0.434 0 0 1 11.25 2.502v-0.025a0.656 0.656 0 0 0 -0.371 -0.591" style="fill:#0065a9"/><path d="m10.879 10.114 -2.162 1.041a0.654 0.654 0 0 1 -0.746 -0.127L0.892 4.575a0.437 0.437 0 0 1 -0.03 -0.618q0.014 -0.015 0.029 -0.029l0.578 -0.525A0.437 0.437 0 0 1 2.029 3.379l8.524 6.465A0.434 0.434 0 0 0 11.25 9.498v0.027a0.656 0.656 0 0 1 -0.371 0.589" style="fill:#007acc"/><path d="M8.716 11.155a0.654 0.654 0 0 1 -0.746 -0.127A0.384 0.384 0 0 0 8.625 10.757V1.244a0.384 0.384 0 0 0 -0.656 -0.271 0.652 0.652 0 0 1 0.746 -0.127l2.162 1.039A0.656 0.656 0 0 1 11.25 2.475v7.05a0.656 0.656 0 0 1 -0.372 0.591Z" style="fill:#1f9cf0"/></svg>