<svg xmlns="http://www.w3.org/2000/svg" width="44" height="44" fill="none"><rect width="44" height="44" fill="#2D2D2E" rx="8"/><path stroke="#DB2C00" stroke-linecap="round" stroke-linejoin="round" stroke-width="2" d="m31.5 28-6.643-6m-5.714 0L12.5 28M12 17l8.165 5.715c.661.463.992.695 1.351.784a2 2 0 0 0 .968 0c.36-.09.69-.32 1.351-.784L32 17M16.8 30h10.4c1.68 0 2.52 0 3.162-.327a3 3 0 0 0 1.311-1.311C32 27.72 32 26.88 32 25.2v-6.4c0-1.68 0-2.52-.327-3.162a3 3 0 0 0-1.311-1.311C29.72 14 28.88 14 27.2 14H16.8c-1.68 0-2.52 0-3.162.327a3 3 0 0 0-1.311 1.311C12 16.28 12 17.12 12 18.8v6.4c0 1.68 0 2.52.327 3.162a3 3 0 0 0 1.311 1.311C14.28 30 15.12 30 16.8 30Z"/></svg>