<svg width="44" height="44" viewBox="0 0 44 44" fill="none" xmlns="http://www.w3.org/2000/svg">
<rect width="44" height="44" rx="8" fill="#2D2D2E"/>
<path d="M32 26.92V29.92C32.0011 30.1985 31.9441 30.4741 31.8325 30.7293C31.7209 30.9845 31.5573 31.2136 31.3521 31.4018C31.1469 31.5901 30.9046 31.7335 30.6408 31.8227C30.3769 31.9119 30.0974 31.945 29.82 31.92C26.7428 31.5856 23.787 30.5341 21.19 28.85C18.7738 27.3146 16.7253 25.2661 15.19 22.85C13.5 20.2412 12.4482 17.271 12.12 14.18C12.095 13.9034 12.1279 13.6247 12.2165 13.3616C12.3051 13.0985 12.4476 12.8567 12.6348 12.6516C12.822 12.4465 13.0498 12.2827 13.3038 12.1705C13.5578 12.0583 13.8323 12.0002 14.11 12H17.11C17.5953 11.9952 18.0658 12.1671 18.4338 12.4835C18.8017 12.8 19.0421 13.2394 19.11 13.72C19.2366 14.68 19.4715 15.6227 19.81 16.53C19.9445 16.8879 19.9737 17.2769 19.8939 17.6509C19.8142 18.0248 19.6289 18.3681 19.36 18.64L18.09 19.91C19.5136 22.4135 21.5865 24.4864 24.09 25.91L25.36 24.64C25.6319 24.3711 25.9752 24.1858 26.3491 24.1061C26.7231 24.0263 27.1121 24.0554 27.47 24.19C28.3773 24.5285 29.3199 24.7634 30.28 24.89C30.7658 24.9585 31.2094 25.2032 31.5265 25.5775C31.8437 25.9518 32.0122 26.4296 32 26.92Z" stroke="#DB2C00" stroke-width="2" stroke-linecap="round" stroke-linejoin="round"/>
</svg>
